HIERARCHY
ROOT joint_0
{
	OFFSET 0.000000 0.000000 0.000000
	CHANNELS 6 Xposition Yposition Zposition Zrotation Yrotation Xrotation 
	JOINT joint_1
	{
		OFFSET 7.683380 1.521202 101.454956
		CHANNELS 3 Zrotation Yrotation Xrotation
		JOINT joint_2
		{
			OFFSET -4.816528 0.859650 92.807007
			CHANNELS 3 Zrotation Yrotation Xrotation
			JOINT joint_3
			{
				OFFSET -7.237778 1.114670 92.543091
				CHANNELS 3 Zrotation Yrotation Xrotation
				JOINT joint_4
				{
					OFFSET 0.479660 2.971886 127.844971
					CHANNELS 3 Zrotation Yrotation Xrotation
					JOINT joint_5
					{
						OFFSET 15.211349 9.937172 76.390015
						CHANNELS 3 Zrotation Yrotation Xrotation
						End Site
						{
							OFFSET 0.000000 0.000000 0.000000
						}
					}
				}
				JOINT joint_6
				{
					OFFSET 2.887054 -26.053230 72.331909
					CHANNELS 3 Zrotation Yrotation Xrotation
					JOINT joint_7
					{
						OFFSET 10.229767 -132.540291 -13.979004
						CHANNELS 3 Zrotation Yrotation Xrotation
						JOINT joint_8
						{
							OFFSET 17.695633 -10.988861 -262.204956
							CHANNELS 3 Zrotation Yrotation Xrotation
							JOINT joint_9
							{
								OFFSET 11.003433 -0.031860 -255.909973
								CHANNELS 3 Zrotation Yrotation Xrotation
								End Site
								{
									OFFSET 0.000000 0.000000 0.000000
								}
							}
						}
					}
				}
				JOINT joint_10
				{
					OFFSET -2.092239 29.348854 71.062988
					CHANNELS 3 Zrotation Yrotation Xrotation
					JOINT joint_11
					{
						OFFSET -11.853149 131.935837 -17.877075
						CHANNELS 3 Zrotation Yrotation Xrotation
						JOINT joint_12
						{
							OFFSET 14.084503 10.700203 -262.437012
							CHANNELS 3 Zrotation Yrotation Xrotation
							JOINT joint_13
							{
								OFFSET 48.202347 13.087273 -251.229919
								CHANNELS 3 Zrotation Yrotation Xrotation
								End Site
								{
									OFFSET 0.000000 0.000000 0.000000
								}
							}
						}
					}
				}
			}
		}
	}
	JOINT joint_14
	{
		OFFSET 4.150818 -83.296913 -102.580017
		CHANNELS 3 Zrotation Yrotation Xrotation
		JOINT joint_15
		{
			OFFSET -36.423187 -7.342392 -449.858948
			CHANNELS 3 Zrotation Yrotation Xrotation
			JOINT joint_16
			{
				OFFSET -41.100235 -7.280350 -426.202026
				CHANNELS 3 Zrotation Yrotation Xrotation
				JOINT joint_17
				{
					OFFSET 175.972961 13.159744 -75.358000
					CHANNELS 3 Zrotation Yrotation Xrotation
					End Site
					{
						OFFSET 0.000000 0.000000 0.000000
					}
				}
			}
		}
	}
	JOINT joint_18
	{
		OFFSET -9.062592 83.477568 -102.093018
		CHANNELS 3 Zrotation Yrotation Xrotation
		JOINT joint_19
		{
			OFFSET -39.145699 -6.092751 -449.645996
			CHANNELS 3 Zrotation Yrotation Xrotation
			JOINT joint_20
			{
				OFFSET -32.926178 -7.016375 -426.911980
				CHANNELS 3 Zrotation Yrotation Xrotation
				JOINT joint_21
				{
					OFFSET 176.289299 16.780729 -73.883997
					CHANNELS 3 Zrotation Yrotation Xrotation
					End Site
					{
						OFFSET 0.000000 0.000000 0.000000
					}
				}
			}
		}
	}
}
MOTION
Frames: 16
Frame Time: 0.016667
-93.713509 -239.681824 1028.531006 3.979963 3.939251 -1.141847 -2.376744 1.106934 3.341973 -1.868342 -0.150009 -0.644024 -1.427324 0.099751 0.705531 -0.865404 -6.146835 7.356014 0.000000 0.000000 0.000000 5.054825 -5.173168 2.900002 -6.222290 -4.170427 -5.007574 -0.607337 -83.389489 15.613041 0.000000 0.000000 0.000000 -2.543365 3.334047 4.512413 0.206005 2.997530 -3.754915 0.646413 4.251986 1.553416 0.000000 0.000000 0.000000 2.904571 -35.726996 -5.289227 2.825562 38.471008 -3.679373 6.819423 -0.568548 2.621009 0.000000 0.000000 0.000000 -6.796390 1.018223 15.994373 -3.833708 37.289545 -5.000835 -4.499645 14.595344 -3.241046 0.000000 0.000000 0.000000 
-79.725403 -249.003189 1025.595947 5.402843 3.264273 -0.912732 -2.694110 1.781932 2.866242 -2.100892 -0.347367 -0.490988 -1.675330 0.245460 0.641079 -0.881272 -5.968150 7.243901 0.000000 0.000000 0.000000 4.896578 -5.175056 3.071624 -6.432077 -4.196375 -4.919139 -0.764318 -82.809722 16.169208 0.000000 0.000000 0.000000 -2.590961 3.476691 4.417911 0.203413 3.148343 -3.755590 0.658471 4.248930 1.636844 0.000000 0.000000 0.000000 2.151843 -35.850515 -4.872522 2.007518 42.030401 -4.310580 6.632442 -0.937833 2.576236 0.000000 0.000000 0.000000 -7.445482 0.296890 16.497312 -4.200133 40.676434 -5.159504 -4.364489 15.525128 -3.293719 0.000000 0.000000 0.000000 
-65.135628 -257.172058 1024.133057 6.863451 2.920310 -0.724621 -3.070022 1.791497 2.746025 -2.385396 -0.428088 -0.498830 -1.932017 0.324469 0.621364 -0.903039 -5.542140 7.052401 0.000000 0.000000 0.000000 4.923180 -4.869681 3.079507 -6.410845 -3.968005 -4.702008 -0.847771 -82.502651 15.833595 0.000000 0.000000 0.000000 -2.615613 3.800227 4.320857 0.182537 3.437725 -4.195097 0.686688 4.366778 1.742448 0.000000 0.000000 0.000000 1.779098 -35.694946 -4.984357 1.285005 44.503726 -4.134542 6.522040 -1.548299 2.589331 0.000000 0.000000 0.000000 -7.965060 -1.184053 16.945013 -4.511145 44.592578 -5.084058 -3.714525 16.387232 -3.071194 0.000000 0.000000 0.000000 
-51.182030 -264.302765 1023.932007 8.138522 2.607620 -0.613621 -3.387539 1.640600 2.844855 -2.642954 -0.469447 -0.586774 -2.152366 0.364019 0.631825 -0.929704 -5.086513 6.893578 0.000000 0.000000 0.000000 4.983221 -4.429915 3.019831 -6.367000 -3.668953 -4.638618 -0.944355 -82.142932 15.340928 0.000000 0.000000 0.000000 -2.517237 4.127074 4.154673 0.142500 3.710825 -4.719569 0.702262 4.592711 1.750552 0.000000 0.000000 0.000000 1.525370 -35.197419 -4.991090 0.630167 46.177202 -3.973785 6.345311 -2.085497 2.573562 0.000000 0.000000 0.000000 -8.238839 -2.611003 17.323084 -4.680298 48.028830 -5.143157 -2.518042 16.887823 -2.453974 0.000000 0.000000 0.000000 
-38.652637 -270.381470 1024.964966 9.062321 2.100741 -0.621821 -3.604231 1.640218 3.078516 -2.829934 -0.497326 -0.680649 -2.320674 0.374039 0.678008 -0.964701 -4.740314 6.856950 0.000000 0.000000 0.000000 5.011593 -3.981495 2.941518 -6.449199 -3.435254 -4.986203 -1.119527 -81.426087 15.243444 0.000000 0.000000 0.000000 -2.162697 4.345538 3.859451 0.082724 3.862410 -5.124484 0.685251 4.983742 1.555315 0.000000 0.000000 0.000000 1.213906 -34.223025 -4.405247 0.026188 47.108440 -4.463209 5.922110 -2.367291 2.438444 0.000000 0.000000 0.000000 -8.112874 -3.440499 17.666113 -4.488164 50.502893 -5.583437 -0.658215 16.492724 -1.345397 0.000000 0.000000 0.000000 
-27.090376 -275.374146 1027.303955 9.721538 1.514477 -0.731649 -3.753944 1.594007 3.496708 -2.983097 -0.472564 -0.813884 -2.462527 0.331693 0.763587 -1.008730 -4.423021 6.901006 0.000000 0.000000 0.000000 5.060605 -3.466241 2.808826 -6.570678 -3.193759 -5.634010 -1.337883 -80.461725 15.267854 0.000000 0.000000 0.000000 -1.585924 4.529915 3.470974 0.003808 3.957559 -5.550304 0.647722 5.555178 1.209667 0.000000 0.000000 0.000000 0.941911 -32.827506 -3.440764 -0.496287 47.269052 -5.313881 5.318433 -2.612441 2.225525 0.000000 0.000000 0.000000 -7.637953 -3.971158 17.984937 -3.978193 52.443332 -6.273952 1.675245 15.179473 0.173941 0.000000 0.000000 0.000000 
-16.522890 -279.591461 1030.524048 10.296298 1.067709 -0.721965 -3.769480 1.417832 3.806448 -3.066754 -0.410993 -0.901543 -2.559062 0.249789 0.828525 -1.050230 -4.134667 6.935251 0.000000 0.000000 0.000000 5.004170 -2.790011 2.632318 -6.630549 -2.818541 -6.260899 -1.561380 -79.682341 15.023497 0.000000 0.000000 0.000000 -1.053654 4.679295 3.125415 -0.086773 4.020375 -5.981561 0.592462 6.016363 0.834451 0.000000 0.000000 0.000000 0.685984 -31.456416 -2.643431 -0.880558 47.012253 -6.126666 4.795623 -2.721361 2.030427 0.000000 0.000000 0.000000 -7.109893 -4.599611 18.081325 -3.476744 53.837835 -7.182988 3.591383 13.579396 1.413355 0.000000 0.000000 0.000000 
-7.107204 -283.184723 1034.402954 10.841922 0.966590 -0.407143 -3.548318 0.996348 3.786492 -3.002654 -0.311687 -0.893155 -2.538618 0.139283 0.823253 -1.081752 -3.891710 6.900976 0.000000 0.000000 0.000000 4.693381 -1.829358 2.434674 -6.595389 -2.182855 -6.676159 -1.804193 -79.561375 14.229089 0.000000 0.000000 0.000000 -0.795747 4.771709 2.929118 -0.187189 4.047512 -6.417857 0.517006 6.156819 0.481958 0.000000 0.000000 0.000000 0.461418 -30.484838 -2.408100 -1.078440 46.571326 -6.647800 4.522488 -2.641522 1.916840 0.000000 0.000000 0.000000 -6.711871 -5.633075 17.776095 -3.195684 54.586699 -8.471042 4.540894 12.227486 1.748602 0.000000 0.000000 0.000000 
1.182027 -286.034790 1039.107056 11.293369 1.125904 0.126375 -3.128663 0.365884 3.566077 -2.797257 -0.171074 -0.834234 -2.394587 -0.002213 0.768196 -1.108095 -3.688906 6.833048 0.000000 0.000000 0.000000 4.172943 -0.624441 2.242843 -6.518895 -1.330693 -7.005780 -2.092741 -79.910985 13.044140 0.000000 0.000000 0.000000 -0.712293 4.811509 2.834655 -0.299964 4.033057 -6.870769 0.420587 6.093851 0.089902 0.000000 0.000000 0.000000 0.290675 -29.737326 -2.531090 -1.110619 45.815380 -7.026360 4.398109 -2.437070 1.850966 0.000000 0.000000 0.000000 -6.364873 -6.866701 17.156800 -3.011504 54.632294 -10.264268 4.875294 11.108312 1.464214 0.000000 0.000000 0.000000 
8.852034 -288.384186 1044.342041 11.791252 1.273036 0.646140 -2.763422 -0.228621 3.398964 -2.626327 -0.047348 -0.796708 -2.280704 -0.130525 0.724480 -1.125479 -3.476661 6.736585 0.000000 0.000000 0.000000 3.690231 0.514364 2.076086 -6.365030 -0.486402 -7.184973 -2.308838 -79.818661 11.707689 0.000000 0.000000 0.000000 -0.612907 4.859851 2.725902 -0.406279 4.036119 -7.235376 0.319705 5.895827 -0.301717 0.000000 0.000000 0.000000 0.151233 -28.891084 -2.781902 -1.089103 44.808109 -7.219417 4.349020 -2.085850 1.803203 0.000000 0.000000 0.000000 -5.904156 -8.048031 16.466751 -2.711167 54.266745 -11.888824 5.590941 10.288035 1.344813 0.000000 0.000000 0.000000 
16.175438 -290.389771 1050.083008 12.456944 1.221044 1.018666 -2.625403 -0.624374 3.430993 -2.635829 0.029392 -0.812256 -2.335956 -0.217132 0.734374 -1.126778 -3.239584 6.602028 0.000000 0.000000 0.000000 3.438910 1.367114 1.903824 -6.075799 0.195164 -7.119953 -2.347932 -78.632691 10.268496 0.000000 0.000000 0.000000 -0.339901 4.958473 2.521994 -0.499825 4.091729 -7.442155 0.211672 5.513974 -0.697154 0.000000 0.000000 0.000000 0.038202 -27.695411 -3.048287 -1.079791 43.532635 -7.171414 4.332936 -1.535772 1.753524 0.000000 0.000000 0.000000 -5.034328 -9.113375 15.819508 -2.003311 53.787616 -12.687440 7.659505 9.541397 1.853858 0.000000 0.000000 0.000000 
22.957468 -291.954651 1056.452026 13.239370 1.058723 1.323227 -2.626943 -0.891681 3.581068 -2.759241 0.070273 -0.857882 -2.498780 -0.280429 0.773463 -1.113811 -2.996372 6.426275 0.000000 0.000000 0.000000 3.323412 2.024253 1.722858 -5.685559 0.780290 -6.842825 -2.270640 -76.672415 8.646821 0.000000 0.000000 0.000000 0.035471 5.081231 2.262768 -0.587235 4.172988 -7.530839 0.088992 4.923761 -1.122758 0.000000 0.000000 0.000000 -0.034512 -26.243293 -3.396530 -1.041912 41.943662 -6.903845 4.352682 -0.782420 1.704735 0.000000 0.000000 0.000000 -3.796533 -10.089385 15.107349 -0.938538 53.005797 -12.923948 10.620791 8.712603 2.744271 0.000000 0.000000 0.000000 
29.494507 -293.124878 1062.630981 14.030938 0.866130 1.521094 -2.686457 -1.153005 3.842291 -2.911463 0.088706 -0.927531 -2.676655 -0.343538 0.827734 -1.108479 -2.676455 6.255055 0.000000 0.000000 0.000000 3.215609 2.506694 1.560357 -5.312482 1.266962 -6.520245 -2.168169 -74.266243 7.245537 0.000000 0.000000 0.000000 0.373397 5.207201 1.984911 -0.635151 4.273784 -7.515770 0.013199 4.491037 -1.365388 0.000000 0.000000 0.000000 -0.110735 -24.766390 -3.701254 -0.997739 40.330676 -6.519545 4.373245 0.047622 1.654760 0.000000 0.000000 0.000000 -2.769468 -10.785034 14.448268 -0.023293 51.880517 -13.120513 12.823266 7.629251 3.480155 0.000000 0.000000 0.000000 
36.061054 -293.850647 1068.173950 14.764730 0.725980 1.566354 -2.767504 -1.557610 4.235285 -3.052735 0.112956 -1.016128 -2.825854 -0.419257 0.892119 -1.128574 -2.203274 6.121152 0.000000 0.000000 0.000000 3.031501 2.812733 1.417644 -4.989076 1.634667 -6.244711 -2.053446 -71.453195 6.287784 0.000000 0.000000 0.000000 0.579629 5.336780 1.691316 -0.608412 4.409750 -7.405189 0.044078 4.500148 -1.198049 0.000000 0.000000 0.000000 -0.206539 -23.426495 -3.891370 -0.948662 38.854092 -6.045053 4.403148 0.866505 1.613486 0.000000 0.000000 0.000000 -2.458820 -11.131520 14.004651 0.301107 50.395320 -13.732929 13.054373 6.441325 3.638364 0.000000 0.000000 0.000000 
42.539555 -294.110321 1073.401001 15.488436 0.617020 1.482948 -2.902364 -2.068705 4.743924 -3.218443 0.141453 -1.115793 -2.987350 -0.502016 0.972642 -1.166482 -1.607578 6.002020 0.000000 0.000000 0.000000 2.820302 2.935715 1.279404 -4.665475 1.867065 -5.960780 -1.893102 -68.080820 5.588424 0.000000 0.000000 0.000000 0.710720 5.473882 1.360970 -0.519430 4.580446 -7.192471 0.157765 4.800021 -0.686924 0.000000 0.000000 0.000000 -0.299314 -22.137033 -4.023958 -0.886019 37.394694 -5.443555 4.447361 1.723064 1.578901 0.000000 0.000000 0.000000 -2.651893 -11.234720 13.745925 0.205774 48.518234 -14.555339 11.994234 5.316118 3.413842 0.000000 0.000000 0.000000 
48.622963 -294.292480 1077.833984 16.190668 0.481959 1.395677 -3.018801 -2.534013 5.181612 -3.345138 0.175086 -1.196507 -3.108966 -0.593980 1.042344 -1.214211 -1.027756 5.914186 0.000000 0.000000 0.000000 2.620984 3.029523 1.171601 -4.435714 2.066493 -5.703196 -1.794297 -64.889685 5.227857 0.000000 0.000000 0.000000 0.796245 5.548664 1.112945 -0.419507 4.695375 -6.908964 0.276806 5.161738 -0.152767 0.000000 0.000000 0.000000 -0.443282 -20.984474 -4.129911 -0.877979 36.193834 -4.892770 4.440947 2.508060 1.531044 0.000000 0.000000 0.000000 -2.837199 -11.287519 13.487707 0.102518 46.585713 -15.015984 10.994482 4.291769 3.230548 0.000000 0.000000 0.000000 
